<svg width="1400" height="470" viewBox="0 0 1400 470" fill="none" xmlns="http://www.w3.org/2000/svg">
  <rect width="1400" height="470" rx="24" fill="#FBFBFA"/>
  <text x="48" y="46" fill="#111111" font-family="ui-sans-serif, system-ui, -apple-system, BlinkMacSystemFont, 'Segoe UI', sans-serif" font-size="22" font-weight="600">Chris Trag - Career Timeline</text>
  <text x="48" y="72" fill="#5F5F58" font-family="ui-sans-serif, system-ui, sans-serif" font-size="13" font-style="italic">Scaled by actual duration, from 2006 through the present</text>

  <g font-family="ui-sans-serif, system-ui, sans-serif" font-size="12" fill="#7A7A73">
    <text x="332" y="100">2006</text><text x="436" y="100">2008</text><text x="540" y="100">2010</text><text x="644" y="100">2012</text><text x="748" y="100">2014</text><text x="852" y="100">2016</text><text x="956" y="100">2018</text><text x="1060" y="100">2020</text><text x="1164" y="100">2022</text><text x="1268" y="100">2024</text><text x="1360" y="100">2026</text>
  </g>
  <g stroke="#E2E2DC" stroke-width="1">
    <line x1="330" y1="110" x2="330" y2="408" /><line x1="434" y1="110" x2="434" y2="408" /><line x1="538" y1="110" x2="538" y2="408" /><line x1="642" y1="110" x2="642" y2="408" /><line x1="746" y1="110" x2="746" y2="408" /><line x1="850" y1="110" x2="850" y2="408" /><line x1="954" y1="110" x2="954" y2="408" /><line x1="1058" y1="110" x2="1058" y2="408" /><line x1="1162" y1="110" x2="1162" y2="408" /><line x1="1266" y1="110" x2="1266" y2="408" /><line x1="1370" y1="110" x2="1370" y2="408" />
  </g>
  <defs>
    <clipPath id="clipHarvard"><circle cx="59" cy="136" r="13"/></clipPath><clipPath id="clipEvernote"><circle cx="59" cy="186" r="13"/></clipPath><clipPath id="clipRoku"><circle cx="59" cy="236" r="13"/></clipPath><clipPath id="clipMio"><circle cx="59" cy="286" r="13"/></clipPath><clipPath id="clipStripe"><circle cx="59" cy="336" r="13"/></clipPath><clipPath id="clipAmazon"><circle cx="59" cy="386" r="13"/></clipPath>
  </defs>
  <g font-family="ui-sans-serif, system-ui, sans-serif">
    <circle cx="59" cy="136" r="13.5" fill="white" stroke="#D9D9D2"/>
    <g clip-path="url(#clipHarvard)"><svg x="46" y="123" width="26" height="26" viewBox="0 0 512 512"><rect width="512" height="512" fill="white"/><path d="M95.2028 64.2256H417.623V186.029C417.623 241.694 396.679 360.194 257.788 448.38C257.788 448.38 106.77 385.55 95.1961 186.029L95.2028 64.2256Z" fill="#A51C30"/><path d="M257.242 450.017L256.14 449.466C255.038 448.915 104.574 383.879 93 186.011V62H419.28V185.462C419.28 233.965 403.848 357.42 258.341 448.917L257.242 450.017ZM96.8518 65.8493V185.451C107.875 372.842 244.565 440.083 257.242 445.595C399.991 354.652 415.425 233.398 415.425 185.451V65.8493H96.8518Z" fill="black"/></svg></g>
    <text x="86" y="140" fill="#111111" font-size="14" font-weight="600">Harvard News Office</text><text x="86" y="159" fill="#676761" font-size="12">Lead Web Developer and WWW Co-Chair</text><rect x="330" y="124" width="261" height="22" rx="11" fill="#ECE9E2" stroke="#D8D2C7"/><text x="600" y="140" fill="#676761" font-size="12">2006 to 2011</text>
    <circle cx="59" cy="186" r="13.5" fill="white" stroke="#D9D9D2"/>
    <g clip-path="url(#clipEvernote)"><svg x="46" y="173" width="26" height="26" viewBox="0 0 512 512"><rect width="512" height="512" fill="white"/><path d="M190.444 142.59C190.444 146.673 190.109 153.5 185.993 157.917C181.576 162 174.749 162.334 170.667 162.334H127.03C114.414 162.334 106.918 162.334 101.798 163.003C99.0871 163.338 95.6737 164.71 93.9671 165.379C93.2978 165.714 93.2978 165.379 93.6324 165.045L193.155 63.8494C193.489 63.5148 193.824 63.5148 193.489 64.1841C192.82 65.8907 191.448 69.3041 191.113 72.0147C190.444 77.1347 190.444 84.6306 190.444 97.2466V142.59ZM283.173 448.753C271.594 441.257 265.437 431.352 263.061 425.228C260.685 419.438 259.313 412.946 259.313 406.488C259.313 378.177 282.504 355.02 311.149 355.02C319.682 355.02 326.475 361.847 326.475 370.347C326.475 376.136 323.397 380.921 318.645 383.632C316.938 384.669 314.562 385.339 312.855 385.673C311.149 386.008 304.69 386.711 301.611 389.421C298.198 392.165 295.488 396.583 295.488 401.368C295.488 406.488 297.529 411.273 300.942 414.653C307.066 420.777 315.265 424.19 324.133 424.19C347.323 424.19 366.063 405.45 366.063 382.26C366.063 361.479 352.075 343.04 333.67 334.875C330.959 333.503 326.509 332.499 322.426 331.461C317.306 330.424 312.554 329.755 312.186 329.755C297.83 328.048 262.024 316.804 259.648 285.114C259.648 285.114 249.073 332.834 227.924 345.784C225.882 346.821 223.138 347.825 220.093 348.528C217.048 349.231 213.601 349.532 212.597 349.532C178.163 351.573 141.687 340.664 116.455 314.763C116.455 314.763 99.4217 300.775 90.5537 261.589C88.5124 252.051 84.4298 234.985 82.0204 218.955C80.983 213.166 80.6484 208.749 80.3137 204.633C80.3137 187.934 90.5537 176.69 103.504 174.984C103.839 174.984 104.876 174.984 105.546 174.984C113.376 174.984 173.043 174.984 173.043 174.984C184.989 174.984 191.782 171.905 196.233 167.822C202.022 162.368 203.395 154.537 203.395 145.334C203.395 145.334 203.395 83.2921 203.395 75.428C203.395 75.0934 203.395 73.7213 203.395 73.3867C205.101 60.7707 216.345 50.1961 233.044 50.1961C233.044 50.1961 238.164 50.1961 241.242 50.1961C244.656 50.1961 248.738 50.5307 252.486 50.8654C255.23 51.2 257.606 51.9028 261.689 52.9067C282.47 58.0267 286.921 79.1425 286.921 79.1425C286.921 79.1425 326.141 85.9692 345.918 89.3825C364.658 92.7958 411.039 95.8745 419.907 142.557C440.688 253.691 428.106 361.445 427.068 361.445C412.411 466.455 325.137 461.335 325.137 461.335C306.33 461.369 292.375 455.212 283.173 448.753ZM361.579 225.447C350.335 224.41 340.798 228.861 337.385 237.394C336.715 239.101 336.013 241.142 336.347 242.179C336.682 243.217 337.385 243.551 338.054 243.886C342.136 245.927 348.963 246.965 358.835 247.969C368.707 249.006 375.534 249.675 379.984 249.006C380.654 249.006 381.356 248.671 382.026 247.634C382.695 246.597 382.36 244.555 382.36 242.849C381.022 233.278 372.823 226.786 361.579 225.447Z" fill="#00A82D"/></svg></g>
    <text x="86" y="190" fill="#111111" font-size="14" font-weight="600">Evernote</text><text x="86" y="209" fill="#676761" font-size="12">Director of Developer Relations</text><rect x="591" y="174" width="208" height="22" rx="11" fill="#E8F3EA" stroke="#CFE0D2"/><text x="808" y="190" fill="#676761" font-size="12">2011 to 2015</text>
    <circle cx="59" cy="236" r="13.5" fill="white" stroke="#D9D9D2"/>
    <g clip-path="url(#clipRoku)"><svg x="46" y="223" width="26" height="26" viewBox="0 0 512 512"><rect width="512" height="512" fill="#662D91"/><path d="M165.801 309.272H132.905L106.724 273.206H97.9724V309.197H69V201H110.497C134.414 201 153.955 217.23 153.955 237.141C153.955 249.313 146.486 260.208 135.093 266.82L165.801 309.272ZM124.983 237.141C125.058 227.148 116.91 219.033 106.875 218.958H97.9724V255.173H106.951C116.91 255.098 124.983 247.059 124.983 237.141Z" fill="white"/><path d="M243.061 266.82C243.136 291.314 223.368 311.225 198.772 311.376C174.176 311.526 154.182 291.765 154.031 267.27C153.88 242.776 173.723 222.865 198.319 222.714H198.395C222.916 222.564 242.91 242.325 242.985 266.745C243.061 266.745 243.061 266.82 243.061 266.82ZM198.47 243.678C190.774 243.678 184.286 254.046 184.286 266.895C184.286 279.743 190.774 290.112 198.47 290.112C206.317 290.112 212.806 279.743 212.806 266.895C212.806 254.046 206.317 243.678 198.47 243.678Z" fill="white"/><path d="M311.115 224.518L277.767 257.803V224.443H248.795V309.197H277.767V274.784L312.624 309.197H349.066L304.778 265.092L341.446 228.575V278.917C341.446 295.597 351.481 311 376.907 311C388.979 311 399.994 304.163 405.427 298.001L418.479 309.197H424.666V224.518H395.694V279.368C392.449 285.003 387.847 288.609 380.83 288.609C373.663 288.609 370.418 284.402 370.418 270.952V224.518H311.115Z" fill="white"/></svg></g>
    <text x="86" y="240" fill="#111111" font-size="14" font-weight="600">Roku</text><text x="86" y="259" fill="#676761" font-size="12">Director of Developer Community</text><rect x="799" y="224" width="52" height="22" rx="11" fill="#EEEAF7" stroke="#D7D0E9"/><text x="860" y="240" fill="#676761" font-size="12">2015 to 2016</text>
    <circle cx="59" cy="286" r="13.5" fill="white" stroke="#D9D9D2"/>
    <g clip-path="url(#clipMio)"><svg x="46" y="273" width="26" height="26" viewBox="0 0 652 652"><rect width="652" height="652" fill="white"/><path d="M495 88V606L396.437 507.254H112V88H493.958" fill="#963398"/><path d="M540 46V564L441.126 465.084H156V46H540Z" fill="#1EBDBF"/><path d="M156 88V465.529H440.935L495 520V89.0475L156 88Z" fill="#492670"/><path d="M238.655 276.5C238.655 289.578 228.639 300 216.327 300C204.016 300 194 289.374 194 276.5C194 263.422 204.016 253 216.327 253C228.639 253 238.655 263.422 238.655 276.5ZM346.119 276.704C345.91 289.578 335.268 299.796 322.122 299.591C308.976 299.387 298.543 288.965 298.543 276.091C298.543 263.217 309.185 253 322.331 253C328.591 253 334.851 255.657 339.233 259.948C343.823 264.443 346.327 270.37 346.119 276.704ZM454 276.704C453.791 289.578 442.941 299.796 430.003 299.591C416.857 299.387 406.424 288.965 406.424 276.091C406.424 263.217 417.066 253 430.212 253C436.472 253 442.732 255.657 447.114 259.948C451.496 264.239 454 270.37 454 276.704Z" fill="white"/></svg></g>
    <text x="86" y="290" fill="#111111" font-size="14" font-weight="600">Mio</text><text x="86" y="309" fill="#676761" font-size="12">VP of Product</text><rect x="851" y="274" width="104" height="22" rx="11" fill="#EAF0F8" stroke="#D1DAE8"/><text x="964" y="290" fill="#676761" font-size="12">2016 to 2018</text>
    <circle cx="59" cy="336" r="13.5" fill="white" stroke="#D9D9D2"/>
    <g clip-path="url(#clipStripe)"><svg x="46" y="323" width="26" height="26" viewBox="0 0 400 400"><path fill-rule="evenodd" clip-rule="evenodd" fill="#635bff" d="M0 0h400v400H0z"/><path d="M184.4 155.5c0-9.4 7.7-13.1 20.5-13.1 18.4 0 41.6 5.6 60 15.5v-56.8C244.8 93.1 225 90 205 90c-49.1 0-81.7 25.6-81.7 68.4 0 66.7 91.9 56.1 91.9 84.9 0 11.1-9.7 14.7-23.2 14.7-20.1 0-45.7-8.2-66-19.3v57.5c22.5 9.7 45.2 13.8 66 13.8 50.3 0 84.9-24.9 84.9-68.2-.4-72-92.5-59.2-92.5-86.3z" fill="#fff"/></svg></g>
    <text x="86" y="340" fill="#111111" font-size="14" font-weight="600">Stripe</text><text x="86" y="359" fill="#676761" font-size="12">Head of Developer Advocacy</text><rect x="981" y="324" width="156" height="22" rx="11" fill="#F6ECEC" stroke="#E6D2D2"/><text x="1146" y="340" fill="#676761" font-size="12">2019 to 2022</text>
    <circle cx="59" cy="386" r="13.5" fill="white" stroke="#D9D9D2"/>
    <g clip-path="url(#clipAmazon)"><svg x="46" y="373" width="26" height="26" viewBox="0 0 512 512"><rect width="512" height="512" fill="white"/><path fill-rule="evenodd" clip-rule="evenodd" d="M265.087 214.025C253.657 215.103 228.558 218.588 216.201 228.874C199.899 242.439 193.311 288 228.678 288C234.195 288 239.008 287.442 243.222 286.498C259.511 282.871 271 268.202 271 251.467V219.423C271 216.227 268.26 213.721 265.087 214.025Z" fill="#FF9900"/><path fill-rule="evenodd" clip-rule="evenodd" d="M0 -1V511H512V-1H0ZM242.671 124.866C221.214 124.866 207.495 148.132 202.771 157.686C201.6 160.067 199 161.374 196.387 160.933L153.34 153.659C149.775 153.062 147.519 149.498 148.557 146.032C153.975 127.932 175.103 78.5727 244.427 78.5727C329.314 78.5727 337.382 133.289 337.382 146.616V257.465C337.382 257.465 337.029 266.936 345.449 278.863C348.149 282.668 350.333 285.696 352.064 288.039C355.044 292.079 354.541 297.694 350.905 301.159L319.515 331.064C315.815 334.567 310.054 334.761 306.186 331.442C302.184 328.011 297.24 323.435 293.541 318.844C290.089 314.572 287.414 310.692 285.536 307.764C283.996 305.371 280.568 305.262 278.871 307.53C271.291 317.76 250.86 339.544 214.621 339.544C167.265 339.544 135.701 301.306 135.701 268.339C135.701 235.363 156.745 193.265 202.345 183.795C234.346 177.156 255.118 177.411 264.664 178.167C267.959 178.424 270.741 175.811 270.741 172.515V146.971C270.741 146.971 269.692 124.879 242.671 124.866ZM359.145 402.681C331.427 418.11 304.415 431.427 240.241 431.427C162.261 431.427 99.9176 381.813 87.6533 366.727C75.3743 351.639 79.4016 343.927 79.4016 343.927C79.4016 343.927 84.1357 334.626 97.4645 343.927C110.793 353.213 173.235 397.069 235.322 397.069C297.41 397.069 340.544 380.578 354.58 374.61C368.603 368.655 384.397 361.197 388.256 368.432C392.112 375.673 386.85 387.243 359.145 402.681Z" fill="#FF9900"/></svg></g>
    <text x="86" y="390" fill="#111111" font-size="14" font-weight="600">Amazon</text><text x="86" y="409" fill="#676761" font-size="12">Head of Developer Evangelism</text><rect x="1137" y="374" width="262" height="22" rx="11" fill="#F6F1E7" stroke="#E6D9BE"/><text x="1137" y="425" fill="#676761" font-size="12">2022 to present</text>
  </g>
</svg>